<?xml version="1.0" encoding="utf-8"?>
<!-- Generator: Adobe Illustrator 22.1.0, SVG Export Plug-In . SVG Version: 6.00 Build 0)  -->
<svg version="1.1" id="Ebene_1" xmlns="http://www.w3.org/2000/svg" xmlns:xlink="http://www.w3.org/1999/xlink" x="0px" y="0px"
	 viewBox="0 0 68 24" style="enable-background:new 0 0 68 24;" xml:space="preserve">
<style type="text/css">
	.st0{fill:#FFFFFF;}
</style>
<g>
	<title>fb_white</title>
	<path class="st0" d="M3.6,1.3c-1.1,0-2.1,0.9-2.1,2v19.4H7v-8.4h7.8c1.1,0,2.1-0.9,2.1-2.1V9.9H7V6.7c0-0.6,0.4-1,1-1h9.3
		c1.1,0,2.1-0.9,2.1-2.1V1.3H3.6z"/>
	<path class="st0" d="M28.3,18.3c-0.6,0-1-0.4-1-1V3.4c0-1.1-0.9-2.1-2.1-2.1c0,0,0,0,0,0h-3.5v19.4c0,1.1,0.9,2.1,2.1,2.1h11.3
		c1.1,0,2.1-0.9,2.1-2.1v-2.3H28.3z"/>
	<path class="st0" d="M45.1,22.7h-5.5V11.5c0-1.1,0.9-2.1,2.1-2.1h3.4L45.1,22.7z"/>
	<path class="st0" d="M43,7.5h-3.4V3.3c0-1.1,0.9-2.1,2.1-2.1H43c1.1,0,2.1,0.9,2.1,2.1v2.1C45.1,6.5,44.2,7.5,43,7.5"/>
	<path class="st0" d="M65.9,18.9l-3.7-5.1L59,18.2l2.7,3.8c0.8,1.1,2.4,1.4,3.6,0.6h0.1C66.5,21.7,66.8,20.1,65.9,18.9"/>
	<path class="st0" d="M60.9,12l-3.2-4.4l-4-5.5c-0.8-1.1-2.4-1.4-3.6-0.6h-0.1c-1.1,0.8-1.4,2.4-0.6,3.6l5,6.9l-5,6.9
		c-0.8,1.1-0.6,2.7,0.6,3.6h0.1c1.1,0.8,2.7,0.6,3.6-0.6l3-4.1L60.9,12z"/>
	<path class="st0" d="M65.3,1.5L65.3,1.5c-1.2-0.8-2.8-0.6-3.6,0.6L59,5.8l3.2,4.4l3.7-5.1C66.7,4,66.5,2.4,65.3,1.5"/>
</g>
</svg>
