<svg id="Layer_1" data-name="Layer 1" xmlns="http://www.w3.org/2000/svg" viewBox="0 0 500 500"><defs><style>.cls-1{fill:#686868;}</style></defs><title>icon_instens</title><path class="cls-1" d="M329,286.57c-7.66-7.09-11.46-14.52-11-21.46.41-5.8,3.75-11.05,9.66-15.17,13.74-9.56,13.06-22.32,8.3-30.33-5.69-9.57-16.7-13.43-25.62-9a23.07,23.07,0,0,0-5.54,4.43c-2.6,2.55-5.29,5.18-9.44,6.32a10.71,10.71,0,0,1-8.35-1.33,6.75,6.75,0,0,1-3.22-4.44c-1.09-6.85,4-13.24,9.47-20,5.62-7,11.42-14.21,10.11-22.63a24.41,24.41,0,0,0-24.57-20.63c-10.36.25-17.78,7.23-18.9,17.79-1.32,12.5-4.89,20.94-10,23.76-3.31,1.81-7.57,1.43-12.69-1.13-7.31-3.66-14.16-4.38-19.81-2.09-4.71,1.92-8.22,5.81-10.12,11.25-3.49,10,2.78,17,6.93,21.63.9,1,1.76,2,2.42,2.84,3.58,4.7,1.43,10.84-2.71,14.07-6.43,5-13.31,1-17.61-4.38-11.44-14.4-24.51-21.23-35-18.28-7.12,2-11.85,8.45-13,17.67-1.72,14.09,10.13,19.77,20.58,24.76,6.76,3.24,13.75,6.58,16.36,11.81,1.92,3.84-.5,7.5-5.31,14.16-6,8.36-14.32,19.82-10.37,37.12,3.75,16.41,15.19,27,31.4,29a43.3,43.3,0,0,0,5.44.34c14.55,0,28.28-7.17,33.92-18.21,7.29-14.24,15.09-22,23.19-23.09,11.11-1.49,21.65,10.06,27.31,16.27.58.65,1.13,1.25,1.62,1.78,7,7.48,18.13,10.38,29.1,7.56,10.5-2.7,18.44-9.94,20.7-18.9,3.25-12.85-5.45-24.23-13.32-31.52Zm6.22,29.73c-1.61,6.35-7.52,11.56-15.43,13.59-6.55,1.69-15.75,1.14-21.91-5.46-.48-.51-1-1.09-1.57-1.71-6.56-7.2-18.77-20.6-33.69-18.6-10.62,1.42-20.29,10.51-28.74,27-4.91,9.61-18.64,15.6-31.94,13.94-13-1.62-22.14-10.13-25.16-23.36-3.21-14.07,3.36-23.17,9.16-31.2,4.88-6.75,9.92-13.73,5.93-21.72-3.73-7.48-11.87-11.37-19.75-15.14-10.88-5.21-17.5-8.83-16.47-17.28.44-3.61,2-9.9,7.69-11.51a10.87,10.87,0,0,1,2.94-.39c7,0,16.21,6,24.29,16.19,9.25,11.63,20.65,11.2,27.84,5.6a19.33,19.33,0,0,0,7-11,16,16,0,0,0-2.94-13.3c-.83-1.09-1.77-2.15-2.78-3.28-4.55-5.1-7.4-8.85-5.48-14.33,1.21-3.45,3.22-5.76,6-6.88,3.59-1.45,8.48-.8,13.78,1.85,7.39,3.7,13.94,4,19.47,1,7.53-4.11,12.17-14,13.81-29.41.72-6.88,5.13-11.08,11.78-11.24a17,17,0,0,1,17.16,14.43c.82,5.24-3.75,10.92-8.57,16.93-5.91,7.35-12.61,15.68-11,25.73a13.91,13.91,0,0,0,6.48,9.44,17.93,17.93,0,0,0,14.25,2.24c6-1.63,9.68-5.24,12.64-8.15a18.6,18.6,0,0,1,3.69-3.11c4.63-2.32,11.82-.94,16,6.16,3.31,5.57,3.42,13.89-6.19,20.58-7.68,5.35-12.22,12.7-12.77,20.68C310.24,271,312.19,281,324,292c9.2,8.51,13.07,16.93,11.19,24.35Zm0,0"/><path class="cls-1" d="M177.09,159.72a48.82,48.82,0,0,0-5.69-16.26c-6.72-12-16.54-18.69-26.94-18.33a19.1,19.1,0,0,0-16.82,11.47C123.92,145,125.92,155,133,163.44c8.42,10,20.18,16.57,29.65,16.57.36,0,.73,0,1.09,0a13.9,13.9,0,0,0,11.31-6.1c2.8-4.2,2.66-10,2.05-14.16ZM169,169.82c-1.18,1.77-3,2.7-5.63,2.85-7.22.39-17.61-5.47-24.72-13.94-5.23-6.23-6.83-13.39-4.27-19.16a11.69,11.69,0,0,1,10.4-7.12h.59c10.4,0,17.21,10.16,19.68,14.59,4.22,7.54,6.81,18.5,3.95,22.79Zm0,0"/><path class="cls-1" d="M234.63,150.78c-.59-3.44-4.82-13.09-11.8-16.57a11.16,11.16,0,0,0-10.46.07c-5.35,2.78-8.44,7.75-8.27,13.32.21,6.33,4.47,11.93,11.42,15a21.23,21.23,0,0,0,8.45,2,10.86,10.86,0,0,0,6.87-2.22c3.19-2.49,4.61-6.83,3.79-11.61Zm-8.3,5.84c-1.39,1.09-4.33.81-7.86-.75-4.3-1.89-6.94-5.07-7.05-8.51-.08-2.71,1.49-5.11,4.32-6.57a3.86,3.86,0,0,1,3.82,0c4.18,2.08,7.51,9.25,7.85,11.24s-.06,3.82-1.08,4.61Zm0,0"/><path class="cls-1" d="M353.22,163.1a9.56,9.56,0,0,0-5-7.13c-2.62-1.41-6.1-1.79-10.32-1.13-5.83.92-10.74,5.6-13.48,12.85-2.38,6.27-3,14.75,1,19.54a8.64,8.64,0,0,0,6.86,3.21,10.43,10.43,0,0,0,1.9-.18c4.81-.84,9.89-4.7,13.95-10.59,4-5.72,5.85-11.92,5.08-16.57Zm-20.29,20c-1.27.22-1.64-.22-1.86-.49-1.46-1.76-1.78-6.95.23-12.28,1.76-4.65,4.67-7.72,7.78-8.2,6.37-1,6.77,1.34,6.91,2.22,1,6.13-7,17.7-13.06,18.75Zm0,0"/><path class="cls-1" d="M372.71,350.58c-4.45-5.86-12.74-9.26-19.71-8.09A13.49,13.49,0,0,0,342,352c-3,9.06,3.8,18.62,12,21.88a16.91,16.91,0,0,0,6.2,1.24c6,0,11.23-3.58,14.26-10.09a13.71,13.71,0,0,0-1.79-14.45Zm-4.85,11.36c-1.4,3-4.71,7.68-11.12,5.13-6.06-2.4-9.09-8.72-7.75-12.77a6.22,6.22,0,0,1,5.22-4.59,9.57,9.57,0,0,1,1.62-.13A14.77,14.77,0,0,1,366.88,355a6.35,6.35,0,0,1,1,6.92Zm0,0"/></svg>