<svg id="Layer_1" data-name="Layer 1" xmlns="http://www.w3.org/2000/svg" viewBox="0 0 500 500"><defs><style>.cls-1{fill:#444;}</style></defs><title>icon_klok_grijs</title><path class="cls-1" d="M251,61.52C148,61.52,64.52,145,64.52,248S148,434.48,251,434.48,437.48,351,437.48,248A186.71,186.71,0,0,0,251,61.52ZM388.36,256h32.8A170.4,170.4,0,0,1,259,418.08v-32.8a8,8,0,0,0-16,0v32.8A170.4,170.4,0,0,1,80.92,256h32.8a8,8,0,1,0,0-16H80.92A170.4,170.4,0,0,1,243,77.92v32.8a8,8,0,1,0,16,0V77.92A170.4,170.4,0,0,1,421.08,240h-32.8a8,8,0,0,0,0,16Z"/><path class="cls-1" d="M259,244.72V164a8,8,0,0,0-16,0v84a8,8,0,0,0,2.32,5.6l78.64,80a8,8,0,1,0,11.44-11.2h0Z"/></svg>