<svg id="Layer_1" data-name="Layer 1" xmlns="http://www.w3.org/2000/svg" viewBox="0 0 500 500"><defs><style>.cls-1{fill:#fff;}</style></defs><title>icon_zoek</title><path class="cls-1" d="M314.18,321.71c-77.93,65.9-173.13,31.17-210-25.41C69.27,242.71,72.08,164.89,130,113.67c47.67-42.15,128.09-42.9,177.51-1.22,56.19,47.38,70.79,134.68,14.83,200.22,11.36-.37,16.2,8.38,22.58,14.69,23.94,23.65,47.66,47.52,71.44,71.34,7.31,7.32,7.16,9.28-.95,17.34-7.37,7.33-9.58,7.38-16.82.14q-39.48-39.43-78.95-78.88C315.8,333.46,312,329.79,314.18,321.71ZM219.65,102.52c-63.89,0-117,52.47-117.08,115.78-.09,65,52,117.85,116.35,118S336.33,284,336.38,220.16C336.44,155.29,284.12,102.57,219.65,102.52Z"/></svg>