<svg id="Layer_1" data-name="Layer 1" xmlns="http://www.w3.org/2000/svg" viewBox="0 0 500 500"><defs><style>.cls-1{fill:#73d700;}</style></defs><title>icon_hartje_groen</title><path class="cls-1" d="M169.6,82.2c28.68,0,49.2,4.73,67,17.2,9.48,6.63,16.17,7.38,26.93.74,48.69-30,110.41-20.42,144.76,21.09,37.23,45,37.93,106.6-2,149.49-44.17,47.38-91.14,92.16-137,137.93-12.37,12.34-25.85,12.06-37.89,0C184.49,362,136.39,316.34,92,267.4,60.48,232.73,55.76,190,75.71,147,95.36,104.68,130.59,84.52,169.6,82.2ZM82.69,193.61c1,26.19,8.84,47.55,25.86,64.83,43.07,43.72,86.7,86.91,129.5,130.91,9.6,9.87,15.45,9.07,24.68-.34,42-42.86,85-84.77,127-127.61,35.92-36.6,37-92.16,3.35-129.36a93.7,93.7,0,0,0-130.74-8.44c-10.53,8.92-15.5,7.32-25-.67-29.83-25-63.88-29.86-99.18-13.48C102.07,126.19,84.53,156.14,82.69,193.61Z"/></svg>