<svg id="Layer_1" data-name="Layer 1" xmlns="http://www.w3.org/2000/svg" viewBox="0 0 500 500"><defs><style>.cls-1{fill:#fff;}</style></defs><title>icon_hartje_wit</title><path class="cls-1" d="M169.34,82.08c28.69.06,49.21,4.73,67,17.21,9.48,6.63,16.16,7.38,26.92.74C312,70,373.71,79.61,408.06,121.12c37.24,45,37.94,106.6-2,149.48C361.85,318,314.89,362.76,269,408.54c-12.37,12.34-25.85,12-37.9,0-46.86-46.72-95-92.35-139.4-141.3-31.47-34.67-36.2-77.37-16.24-120.37C95.11,104.56,130.33,84.41,169.34,82.08ZM82.43,193.5c1,26.18,8.84,47.55,25.86,64.82,43.08,43.73,86.71,86.91,129.5,130.91,9.61,9.88,15.46,9.07,24.68-.34,42-42.85,85-84.77,127-127.6,35.92-36.6,37-92.16,3.35-129.37a93.72,93.72,0,0,0-130.75-8.44c-10.53,8.92-15.5,7.33-25-.67-29.84-25-63.88-29.85-99.18-13.48C101.82,126.07,84.28,156,82.43,193.5Z"/></svg>