<svg id="Layer_1" data-name="Layer 1" xmlns="http://www.w3.org/2000/svg" viewBox="0 0 500 500"><defs><style>.cls-1{fill:#fff;}</style></defs><title>icon_profiel_wit</title><path class="cls-1" d="M249.75,417.92H144.53c-40.3,0-42.29-1.88-42.17-41.32,0-16.19-1.16-32.44,2.74-48.47,9.31-38.27,31.35-66.19,66.56-84,11.62-5.89,21.56-5.71,32.6,1.92,30.56,21.13,61.79,21.36,92.35-.17,11-7.78,21.74-7.45,32.87-1.59,41.85,22,65,56.6,68,103.92.92,14.23.34,28.57.12,42.86-.32,20.24-6.43,26.63-27.05,26.8C330.3,418.15,290,417.92,249.75,417.92Zm-.25-17.5h87.74c42.71,0,42.39,0,42.48-43.09.09-39.46-15.24-70.33-48.49-92.1-10.76-7-19.91-8-32-.31-31.13,19.8-64.6,20.55-95.78,1.21-15.3-9.49-25.81-7.3-38.42,2A118.49,118.49,0,0,0,131,307.51c-12.89,23.62-9.76,49.08-10.91,74.26-.64,14.21,3.19,19.43,18.3,19C175.39,399.7,212.45,400.42,249.5,400.42Z"/><path class="cls-1" d="M186.88,149.82c-1.09-17.81,6-36.19,20.35-51.54,26.62-28.49,67.18-26.61,91.4,3.85,26.56,33.42,22.08,86.07-9.87,112.6-18.68,15.52-40.08,19.42-61.74,8.62C198.75,209.25,186.62,184.49,186.88,149.82Zm110.69-4.2c-.18-23.6-18.36-47.53-42.94-49.9-23.12-2.23-43.69,16.12-49.62,45.67-4.86,24.19,2.25,45.28,21.13,61.27,12.44,10.54,27.57,12.45,42,4.9C290.08,196.09,298.12,176.24,297.57,145.62Z"/></svg>