<svg id="Layer_1" data-name="Layer 1" xmlns="http://www.w3.org/2000/svg" viewBox="0 0 500 500"><defs><style>.cls-1{fill:#444;}</style></defs><title>icon_downloaden_grijs</title><path class="cls-1" d="M239.46,279.82c0-49.58.48-100.31-.29-151-.23-15.68,6-19.85,20.46-19.49,12.95.32,16.62,5.89,16.52,17.88-.38,45.4-.15,90.82-.15,136.23V283.9c19.55-19.31,37-36.37,54.26-53.62,14.34-14.34,19.29-14.71,31,1.63,2.86,4,2.72,14.44-.42,17.73-30.54,31.93-62.08,62.92-93.17,94.33-7.1,7.17-13.18,6.66-20.07-.3Q200.95,296.55,154,249.78c-9.95-9.87-2.59-15.7,3.83-22.48,7.11-7.5,13.37-11.15,22.7-2.07C199.51,243.76,219.42,261.38,239.46,279.82Z"/><path class="cls-1" d="M257.83,415.59c-36.86,0-73.73-.38-110.59.19-13.67.21-21.36-2.19-21.12-18.66.23-15.25,7.11-18.18,20.09-18.13q111.49.42,223,0c12.87-.05,20,2.63,20.21,18,.22,16.33-7.18,19-21,18.79C331.56,415.19,294.69,415.59,257.83,415.59Z"/></svg>