<svg id="Layer_1" data-name="Layer 1" xmlns="http://www.w3.org/2000/svg" viewBox="0 0 500 500"><defs><style>.cls-1{fill:#686868;}</style></defs><title>icon_verdriet</title><path class="cls-1" d="M350.39,220.44a4.89,4.89,0,1,0,4.88,4.89,4.89,4.89,0,0,0-4.88-4.89Zm0,0"/><path class="cls-1" d="M227.34,304.43a4.88,4.88,0,1,0,4.88,4.88,4.89,4.89,0,0,0-4.88-4.88Zm0,0"/><path class="cls-1" d="M243.3,277.69l-50.79-88a4.89,4.89,0,0,0-8.46,0l-50.79,88a63.47,63.47,0,1,0,110,0Zm-55,85.33a53.7,53.7,0,0,1-46.57-80.45l46.57-80.67,46.56,80.67A53.68,53.68,0,0,1,188.28,363Zm0,0"/><path class="cls-1" d="M224.82,324a4.89,4.89,0,0,0-6.64,1.9,34.25,34.25,0,0,1-29.9,17.64,4.89,4.89,0,1,0,0,9.77,44,44,0,0,0,38.44-22.67,4.89,4.89,0,0,0-1.9-6.64Zm0,0"/><path class="cls-1" d="M367.65,198.58l-42.33-73.34a4.89,4.89,0,0,0-8.46,0l-42.33,73.34a53.71,53.71,0,1,0,93.12,0Zm-46.56,70.69A43.93,43.93,0,0,1,283,203.47l38.11-66,38.1,66a43.9,43.9,0,0,1-38.1,65.8Zm0,0"/><path class="cls-1" d="M346.94,240a4.88,4.88,0,0,0-6.87.72,24.35,24.35,0,0,1-19,9.07,4.89,4.89,0,0,0,0,9.77,34.07,34.07,0,0,0,26.57-12.7,4.89,4.89,0,0,0-.72-6.86Zm0,0"/></svg>