<svg id="Layer_1" data-name="Layer 1" xmlns="http://www.w3.org/2000/svg" viewBox="0 0 500 500"><defs><style>.cls-1{fill:#686868;}</style></defs><title>icon_hartje_grijs</title><path class="cls-1" d="M189.85,124.89c21.37,0,36.65,3.52,49.94,12.81,7.06,4.94,12,5.5,20.06.55C296.12,115.87,342.09,123,367.68,154c27.74,33.51,28.26,79.41-1.52,111.36-32.9,35.29-67.89,68.65-102.07,102.75-9.22,9.19-19.26,9-28.23,0C201,333.3,165.12,299.31,132,262.84c-23.45-25.82-27-57.63-12.1-89.66C134.55,141.63,160.79,126.62,189.85,124.89Zm-64.74,83c.73,19.51,6.59,35.42,19.26,48.29,32.09,32.57,64.59,64.74,96.47,97.52,7.15,7.35,11.52,6.75,18.39-.25,31.3-31.93,63.32-63.15,94.63-95.06,26.76-27.26,27.53-68.65,2.5-96.37A69.8,69.8,0,0,0,259,155.73c-7.85,6.64-11.55,5.45-18.66-.5-22.23-18.62-47.58-22.24-73.88-10C139.55,157.66,126.48,180,125.11,207.88Z"/></svg>