<svg id="Layer_1" data-name="Layer 1" xmlns="http://www.w3.org/2000/svg" viewBox="0 0 500 500"><defs><style>.cls-1{fill:#686868;}</style></defs><title>icon_wereld</title><path class="cls-1" d="M314.09,349.69a4.88,4.88,0,0,0-6.67-1.77l-.19.11a4.88,4.88,0,1,0,4.9,8.44l.19-.1a4.9,4.9,0,0,0,1.77-6.68Zm0,0"/><path class="cls-1" d="M358.05,185.66a125,125,0,1,0-63.52,179.2,4.88,4.88,0,1,0-3.51-9.11,114.47,114.47,0,0,1-110.15-15.14l4.38-22.84,2.11-.68A15.21,15.21,0,0,0,197.11,298l-1.55-4.76a5.47,5.47,0,0,1,0-3.37,15.19,15.19,0,0,0-11.52-19.64L173,268l-21.27-16.17a4.88,4.88,0,0,0-4.46-.76l-12.45,4.05a116.24,116.24,0,0,1,0-13.33c.49.45.82.76,1,1a5.11,5.11,0,0,0,4.77,2.44,70.63,70.63,0,0,0,8.75-1c4.12-.61,8.22-1.3,8.26-1.3a4.89,4.89,0,0,0,3.23-7.57l-6-8.78,8.57-6.13a5,5,0,0,0,1.4-1.55l13.29-23.2,5.36-5.74a20.62,20.62,0,0,0,4-21.88,22.37,22.37,0,0,0-8.89-10.47A114.92,114.92,0,0,1,248.49,133l-8.72,10.94-32.33,11.34a4.85,4.85,0,0,0-2.9,2.74l-9,21.89a4.88,4.88,0,0,0,.54,4.7l13.19,18.47a46.25,46.25,0,0,0-5.93,7.35c-1,1.37-1.87,2.66-2.5,3.38s-1.09,1.25-1.63,1.86c-2.84,3.19-5.77,6.49-7.85,10.9A29.07,29.07,0,0,0,193.74,256a27.38,27.38,0,0,0,25.87,11.1,35.61,35.61,0,0,0,4.77-1c4.19-1,5.52-1.14,6.86.12.65.61.71.73.7,2.8a19.17,19.17,0,0,0,.43,4.84,15.5,15.5,0,0,0,4.13,6.74,11,11,0,0,1,1.77,2.26c1.52,3.65.86,5.67-.59,10.1-.12.38-.25.76-.38,1.16-2.21,6.83.87,13.61,3.58,19.59a57.17,57.17,0,0,1,2.26,5.4c4.4,13,7.69,16,10.33,17.21a10.13,10.13,0,0,0,4.26.9c7,0,14.38-6.53,17.76-10.68a15.05,15.05,0,0,0,3-7.11,8.06,8.06,0,0,1,.62-2.18,13.2,13.2,0,0,1,1.6-2.06,17,17,0,0,0,4-6.63c.8-2.53,1.38-3.14,3.31-5.2l1.08-1.16c6.5-7.07,4.83-12.48,3.05-18.2-1.49-4.82,1.12-7.9,7.43-13.78a52.66,52.66,0,0,0,7.76-8.35c.95-1.38,3.87-5.6,2.06-9.77s-6.25-4.79-9.86-5.34a16.2,16.2,0,0,1-4.26-1c-3-2-4.87-6.1-6.66-10.08-.35-.8-.7-1.58-1.06-2.34-.63-1.36-1.27-3-1.94-4.74-1.78-4.59-3.79-9.81-7.22-13.44-3.08-3.26-8.89-4.83-14-6.22-1.72-.47-3.35-.91-4.42-1.31a4.9,4.9,0,0,0-2.81-.17,12.71,12.71,0,0,0-5.2,2.16,5.94,5.94,0,0,0-1.74,2.33,54.71,54.71,0,0,1-5.76-3.5l-.09-.06a6.88,6.88,0,0,0-.44-4.7c-2.72-5.77-11.78-5.32-13.56-5.17-1,.09-2.3.13-3.66.18-2.13.07-4.49.16-6.82.42l.12-.33a12.47,12.47,0,0,1,11.72-8.25h2.77a4.89,4.89,0,1,0,0-9.77h-2.77a22.28,22.28,0,0,0-18.9,10.55l-7.28-10.2,7.16-17.37,31.59-11.08a4.88,4.88,0,0,0,2.21-1.56l14-17.62a115.11,115.11,0,0,1,89,57.06,113.91,113.91,0,0,1,11.51,28L359,220.33a13.09,13.09,0,0,0-4.35,9.49v.12l-3.37-9.28a12.12,12.12,0,0,0-2.2-3.77l-6-7a12.26,12.26,0,0,0-9.32-4.3h-7.36a7.08,7.08,0,0,0-5.89,11l.75,1.12a54.19,54.19,0,0,1-16.12,9.57l-10.1-19.33V203.6a4.87,4.87,0,0,0-1.51-3.54l-9.09-8.67a4.81,4.81,0,0,0-1.75-1.08l-8.18-2.87a4.88,4.88,0,1,0-3.24,9.21l7.19,2.53,6.82,6.51v3.42a5,5,0,0,0,.55,2.26l12.64,24.2a4.88,4.88,0,0,0,6,2.32l3.67-1.35a64.11,64.11,0,0,0,22.92-14.67,4.89,4.89,0,0,0,.61-6.16l-.26-.39h2.33a2.49,2.49,0,0,1,1.89.87l6,7.05a2.4,2.4,0,0,1,.44.76l6.64,18.25a4.88,4.88,0,0,0,3.53,3.1,4.79,4.79,0,0,0,1.06.12,4.89,4.89,0,0,0,3.45-1.43l3.16-3.16a15.29,15.29,0,0,0,4-7.34c4.88,39.16-10.47,79.67-42.93,105.15a4.88,4.88,0,1,0,6,7.68,125,125,0,0,0,30.94-160.71ZM147.89,261.18,168,276.49a4.91,4.91,0,0,0,2,.9l12.13,2.37a5.44,5.44,0,0,1,4.12,7,15.05,15.05,0,0,0,0,9.43l1.54,4.76a5.42,5.42,0,0,1-3.48,6.83l-4.85,1.58a4.87,4.87,0,0,0-3.29,3.72l-3.91,20.39a116.84,116.84,0,0,1-22.24-27.74,114.58,114.58,0,0,1-14.18-40.67Zm28.45-77.88-5.74,6.16a4.9,4.9,0,0,0-.67.9l-13,22.77-11.59,8.29a4.9,4.9,0,0,0-1.2,6.73l4.34,6.35c-2.5.38-4.75.68-6.24.85-.28-.28-.58-.56-.89-.85-1.16-1.07-2.78-2.51-5.18-4.62a115.37,115.37,0,0,1,34.39-65.31,12.68,12.68,0,0,1,7.91,7.24,10.82,10.82,0,0,1-2.09,11.49ZM216.15,210c2.18-1.22,7.23-1.4,10.92-1.53,1.48,0,2.88-.1,4.13-.21a14.46,14.46,0,0,1,2.08,0,4.87,4.87,0,0,0,2.25,6.08c.91.49,2.19,1.34,3.54,2.24,3.81,2.54,8.14,5.42,12.2,5.68a8.08,8.08,0,0,0,6.63-2.76l.21-.21a5.12,5.12,0,0,0,1.31-1.6c.78.23,1.6.45,2.44.68,2.89.78,8.27,2.23,9.46,3.5,2.11,2.23,3.76,6.5,5.21,10.26.73,1.9,1.43,3.69,2.21,5.35.33.71.66,1.45,1,2.19,2.25,5,4.81,10.72,10.23,14.27,2.45,1.6,5.46,2.06,8.12,2.47l1.07.17a47.63,47.63,0,0,1-6.2,6.5c-6,5.63-13.57,12.63-10.1,23.81,1.63,5.28,1.71,5.85-.92,8.71l-1,1.08a20,20,0,0,0-5.5,8.93,7.63,7.63,0,0,1-2,3.1,22.24,22.24,0,0,0-2.73,3.62,15.91,15.91,0,0,0-1.77,5.18,5.87,5.87,0,0,1-1,2.87,28.53,28.53,0,0,1-6.16,5.45c-2.3,1.45-3.64,1.65-4.09,1.63-.52-.56-2.41-3-5.26-11.47-.7-2.09-1.68-4.24-2.62-6.32-2.08-4.58-4.23-9.31-3.19-12.55.13-.38.25-.76.37-1.12,1.67-5.09,3.25-9.9.33-16.9a17.59,17.59,0,0,0-3.56-5.07,9.13,9.13,0,0,1-1.86-2.47,10,10,0,0,1-.16-2.47c0-2.56,0-6.41-3.79-10-5.41-5.06-11.71-3.5-15.88-2.47a28.74,28.74,0,0,1-3.56.74,17.54,17.54,0,0,1-16.81-7.1,19.31,19.31,0,0,1-1.51-19.54c1.48-3.14,3.72-5.67,6.32-8.59.56-.64,1.14-1.28,1.71-1.94.95-1.1,2-2.58,3.11-4.16,1.32-1.87,3.78-5.37,4.85-6Zm0,0"/><path class="cls-1" d="M325,291.22l-2.35-8.85a4.88,4.88,0,0,0-9-1.08c-.54,1-1,2-1.49,3a20.43,20.43,0,0,1-2.44,4.42,10.44,10.44,0,0,1-2.86,1.7c-2.81,1.36-6.66,3.22-8.13,7.91a14.33,14.33,0,0,0-.32,6.89,4.45,4.45,0,0,1-.13,2.87l0,.12c-1.55,3.64-4.45,10.43-.39,16.21,2.89,4.11,5.93,5.17,8.3,5.17a8.8,8.8,0,0,0,1.3-.1c5-.82,8.72-6,11.78-16.31L325,293.87a5,5,0,0,0,0-2.65Zm-15.15,19.23c-1.56,5.25-2.94,7.71-3.73,8.79l-.3-.4c-.93-1.33.46-4.6,1.38-6.77l.05-.11a13.84,13.84,0,0,0,.81-8.14,5.12,5.12,0,0,1,0-2.53c.2-.61,1.34-1.2,3.06-2,.77-.37,1.61-.78,2.46-1.27Zm0,0"/><path class="cls-1" d="M256.65,181.16l-.33-.12a4.88,4.88,0,0,0-3.23,9.22l.33.11a4.79,4.79,0,0,0,1.61.28,4.88,4.88,0,0,0,1.62-9.49Zm0,0"/></svg>