<svg id="Layer_1" data-name="Layer 1" xmlns="http://www.w3.org/2000/svg" viewBox="0 0 500 500"><defs><style>.cls-1{fill:#686868;}</style></defs><title>icon_horror</title><path class="cls-1" d="M351.86,357.37c-17.67-38.73-28.21-94.54-28.21-149.28a83.26,83.26,0,0,0-23.84-58.56,79.82,79.82,0,0,0-114.91,0,83.26,83.26,0,0,0-23.84,58.56v.14c1.16,42-3.52,62.63-7.65,80.85-4.6,20.29-8.58,37.82-4.26,76.71a4.88,4.88,0,0,0,2.93,3.95c8.46,3.62,15.8,5.38,22.44,5.38,8.17,0,14-2.56,19.63-5,4.46-2,8.67-3.82,14-4.32.4,0,.82-.05,1.26-.05,4.71,0,10.53,2.1,16.69,4.32,6.91,2.5,14.06,5.08,20.88,5.08a23.37,23.37,0,0,0,2.4-.12c6.13-.59,11.88-3.06,17.45-5.46,5.3-2.29,10.32-4.44,14.75-4.54,11.12-.22,18,2.2,24.64,4.54,5.27,1.86,10.25,3.62,16.4,3.62h0c8,0,16.38-3,27.29-9.58a4.87,4.87,0,0,0,1.91-6.2Zm-29.2,6h0c-4.48,0-8.3-1.35-13.15-3.06-6.74-2.38-15.19-5.36-28.09-5.1-6.34.13-12.48,2.78-18.42,5.33-5.09,2.2-9.91,4.27-14.51,4.72q-.71.06-1.47.06c-5.12,0-11.45-2.28-17.56-4.49-6.69-2.41-13.6-4.9-20-4.9-.74,0-1.46,0-2.15.09-6.95.65-12.33,3-17.07,5.1-5.15,2.26-9.59,4.22-15.7,4.22-4.64,0-9.89-1.16-16-3.52-3.64-35.26.09-51.67,4.38-70.61,4.25-18.77,9.08-40.05,7.89-83.2,0-40.34,32.11-73.15,71.53-73.15s71.53,32.84,71.53,73.21a452.49,452.49,0,0,0,7.43,81.49c4.75,25.5,11.43,48.28,19.87,67.79-7.41,4.09-13.36,6-18.52,6Zm0,0"/><path class="cls-1" d="M208.66,186.59a19.53,19.53,0,1,0,19.52,19.52,19.55,19.55,0,0,0-19.52-19.52Zm0,29.29a9.77,9.77,0,1,1,9.76-9.77,9.78,9.78,0,0,1-9.76,9.77Zm0,0"/><path class="cls-1" d="M262.83,186.59a19.53,19.53,0,1,0,19.53,19.52,19.55,19.55,0,0,0-19.53-19.52Zm0,29.29a9.77,9.77,0,1,1,9.76-9.77,9.78,9.78,0,0,1-9.76,9.77Zm0,0"/><path class="cls-1" d="M201.28,313.12a4.9,4.9,0,0,0-5.34,4.38c-1,9.81-2.75,17.62-5.14,22.59a4.88,4.88,0,1,0,8.79,4.23c2.93-6.07,5-14.77,6.07-25.86a4.9,4.9,0,0,0-4.38-5.34Zm0,0"/><path class="cls-1" d="M201.54,299.75a4.88,4.88,0,0,0-4.88,4.87v.14a4.9,4.9,0,0,0,4.84,4.93h0a4.88,4.88,0,0,0,4.88-4.84v-.22a4.87,4.87,0,0,0-4.88-4.88Zm0,0"/><path class="cls-1" d="M306.91,335.59C296.62,319.93,296,285.43,296,285a4.88,4.88,0,0,0-9.76.14c0,1.53.65,37.75,12.52,55.81a4.85,4.85,0,0,0,4.08,2.2,4.87,4.87,0,0,0,4.07-7.56Zm0,0"/></svg>