<svg id="Layer_1" data-name="Layer 1" xmlns="http://www.w3.org/2000/svg" viewBox="0 0 500 500"><defs><style>.cls-1{fill:#686868;}</style></defs><title>icon_spel</title><path class="cls-1" d="M274.86,307.18a13.25,13.25,0,0,0-3.92-8.57L254,281.71a17.66,17.66,0,0,0,7.2-4.36l.43-.43c7.44-7.44,6.85-20.16-1.33-28.34a22,22,0,0,0-14.18-6.52A18.14,18.14,0,0,0,232,247.25l-.43.43a17.77,17.77,0,0,0-4.36,7.2L210.31,238c-5-5-12.78-5.28-17.39-.67l-15.31,15.32a7.91,7.91,0,0,0-2.09,7.29,8.8,8.8,0,0,0,5.45,6.39,13.61,13.61,0,0,1,4.76,3.12l.49.49a13.07,13.07,0,0,1,3.93,8.42,9,9,0,0,1-9.94,9.94,13.06,13.06,0,0,1-8.42-3.94l-.48-.48a13.5,13.5,0,0,1-3.13-4.76,8.8,8.8,0,0,0-6.39-5.45,7.93,7.93,0,0,0-7.29,2.08L139.2,291c-4.61,4.61-4.31,12.41.67,17.39l16.9,16.9a17.77,17.77,0,0,0-7.2,4.36l-.43.43c-7.45,7.45-6.85,20.16,1.33,28.34A21.91,21.91,0,0,0,165.86,365a18.14,18.14,0,0,0,12.95-5.22l.43-.43a17.77,17.77,0,0,0,4.36-7.2l16.89,16.9a13.36,13.36,0,0,0,8.57,3.93l.73,0a11.47,11.47,0,0,0,8.1-3.28l14.56-14.57a22.72,22.72,0,0,0,5,7.4l.49.48c8.18,8.18,20.89,8.78,28.33,1.33s6.85-20.16-1.33-28.34l-.48-.48a22.53,22.53,0,0,0-7.4-5L271.61,316a11.44,11.44,0,0,0,3.25-8.82Zm-9.54,2.53L250,325a7.91,7.91,0,0,0-2.08,7.28,8.76,8.76,0,0,0,5.45,6.39,13.78,13.78,0,0,1,4.76,3.13l.48.48c4.71,4.72,5.31,11.78,1.33,15.76s-11,3.38-15.75-1.33l-.49-.48a13.79,13.79,0,0,1-3.12-4.76,8.8,8.8,0,0,0-6.4-5.46,7.94,7.94,0,0,0-7.28,2.09l-15.3,15.3a2.6,2.6,0,0,1-2,.67,4.45,4.45,0,0,1-2.81-1.34L200,356l14.76-14.76a4.45,4.45,0,0,0-6.29-6.29l-14.76,14.76-4.61-4.61a8.72,8.72,0,0,0-6.14-2.6,8.21,8.21,0,0,0-2.3.34,7.54,7.54,0,0,0-5.32,5.76,8.88,8.88,0,0,1-2.4,4.48l-.43.43c-4,4-11.05,3.38-15.76-1.33s-5.31-11.78-1.33-15.76l.43-.43a8.8,8.8,0,0,1,4.48-2.4,7.54,7.54,0,0,0,5.76-5.32,8.56,8.56,0,0,0-2.26-8.44l-17.68-17.68a4.45,4.45,0,0,1-1.34-2.81,2.6,2.6,0,0,1,.67-2l14.57-14.57a22.58,22.58,0,0,0,4.95,7.4l.49.48c8.18,8.19,20.89,8.78,28.34,1.34s6.85-20.16-1.33-28.34l-.49-.49a22.65,22.65,0,0,0-7.39-4.95l14.58-14.59c1.12-1.12,3.33-.81,4.81.67L221.7,262a8.53,8.53,0,0,0,8.44,2.26,7.56,7.56,0,0,0,5.32-5.76,8.8,8.8,0,0,1,2.4-4.48l.43-.43a9.36,9.36,0,0,1,7.33-2.6,13.12,13.12,0,0,1,8.43,3.93c4.71,4.72,5.31,11.78,1.33,15.76l-.43.43a8.8,8.8,0,0,1-4.48,2.4,7.56,7.56,0,0,0-5.76,5.32,8.54,8.54,0,0,0,2.26,8.44l17.67,17.68a4.4,4.4,0,0,1,1.34,2.81,2.55,2.55,0,0,1-.66,2Zm0,0"/><path class="cls-1" d="M226.18,323.52a4.45,4.45,0,0,0-7.59,3.14,4.45,4.45,0,1,0,8.89,0,4.44,4.44,0,0,0-1.3-3.14Zm0,0"/><path class="cls-1" d="M320.65,201.73a4.46,4.46,0,0,0-7.6,3.15,4.45,4.45,0,0,0,8.9,0,4.53,4.53,0,0,0-1.3-3.15Zm0,0"/><path class="cls-1" d="M354,247.48a22.66,22.66,0,0,0-8.48-5.37l14.91-14.91a11.49,11.49,0,0,0,3.26-8.83,13.36,13.36,0,0,0-3.93-8.57l-16.57-16.56a17.81,17.81,0,0,0,6.21-4l.43-.44c7.45-7.44,6.85-20.15-1.33-28.33s-20.89-8.78-28.34-1.34l-.43.43a17.8,17.8,0,0,0-4,6.22l-16.59-16.59c-5-5-12.78-5.28-17.39-.67l-14.91,14.91a22.79,22.79,0,0,0-5.37-8.48l-.49-.49c-8.18-8.18-20.89-8.77-28.33-1.33s-6.85,20.16,1.33,28.34l.48.49a22.87,22.87,0,0,0,8.49,5.37L228,202.23c-4.61,4.61-4.31,12.41.68,17.39l17.69,17.68a8.53,8.53,0,0,0,8.44,2.26,7.56,7.56,0,0,0,5.32-5.76,8.8,8.8,0,0,1,2.4-4.48l.43-.43a9.36,9.36,0,0,1,7.33-2.6,13.59,13.59,0,0,1,12.36,12.36A9.36,9.36,0,0,1,280,246l-.43.43a8.8,8.8,0,0,1-4.48,2.4,7.56,7.56,0,0,0-5.76,5.32,8.53,8.53,0,0,0,2.26,8.44l17.66,17.68a13.26,13.26,0,0,0,9.31,3.94,11.36,11.36,0,0,0,8.08-3.27L321.59,266a22.72,22.72,0,0,0,5.36,8.49l.49.48c8.18,8.18,20.89,8.78,28.34,1.33s6.85-20.16-1.33-28.34ZM349.49,270c-4,4-11.05,3.38-15.76-1.33l-.49-.49a13.68,13.68,0,0,1-3.36-5.41,8.86,8.86,0,0,0-6.32-5.85,7.9,7.9,0,0,0-7.52,2l-15.66,15.66a2.53,2.53,0,0,1-2,.67,4.45,4.45,0,0,1-2.81-1.34l-16.88-16.89a17.77,17.77,0,0,0,7.2-4.36l.43-.43a18.15,18.15,0,0,0,5.19-14.16,22.49,22.49,0,0,0-20.7-20.7,18.14,18.14,0,0,0-14.16,5.19l-.43.43a17.66,17.66,0,0,0-4.36,7.2L235,213.33a4.47,4.47,0,0,1-1.34-2.81,2.54,2.54,0,0,1,.66-2l15.67-15.66a8,8,0,0,0,2-7.52,8.87,8.87,0,0,0-5.85-6.33,13.66,13.66,0,0,1-5.41-3.35l-.49-.49c-4.71-4.71-5.31-11.78-1.33-15.76s11-3.38,15.75,1.33l.49.49a13.71,13.71,0,0,1,3.36,5.42,8.89,8.89,0,0,0,6.33,5.85,7.91,7.91,0,0,0,7.51-2L288,154.8c1.13-1.12,3.33-.81,4.81.67l17.29,17.28a8.55,8.55,0,0,0,8.2,2.33,7.56,7.56,0,0,0,5.44-5.34,8.83,8.83,0,0,1,2.25-3.9l.43-.43c4-4,11-3.38,15.76,1.34s5.31,11.78,1.33,15.75l-.43.43a8.67,8.67,0,0,1-3.89,2.26,7.59,7.59,0,0,0-5.35,5.43,8.62,8.62,0,0,0,2.33,8.21l17.27,17.26a4.47,4.47,0,0,1,1.34,2.82,2.57,2.57,0,0,1-.67,2L347,228,332.22,213.3a4.45,4.45,0,0,0-6.29,6.29l14.74,14.74-2.24,2.24a7.93,7.93,0,0,0-2,7.51,8.87,8.87,0,0,0,5.85,6.33,13.78,13.78,0,0,1,5.42,3.36l.48.48c4.72,4.72,5.31,11.79,1.34,15.76Zm0,0"/></svg>