<svg id="Layer_1" data-name="Layer 1" xmlns="http://www.w3.org/2000/svg" viewBox="0 0 500 500"><defs><style>.cls-1{fill:#686868;}</style></defs><title>icon_psychisch</title><path class="cls-1" d="M356.57,251.05a33.81,33.81,0,0,0-18.3-30,29.65,29.65,0,0,0-5.06-22.34A30.83,30.83,0,0,0,313,185.93a25.89,25.89,0,0,0-6.77-15.08,27.49,27.49,0,0,0-42.42,2.51,27.49,27.49,0,0,0-42.42-2.51,25.89,25.89,0,0,0-6.77,15.08,30.88,30.88,0,0,0-20.22,12.75A29.65,29.65,0,0,0,189.33,221a33.75,33.75,0,0,0-3.79,57.74,28.84,28.84,0,0,0-2,27.46A31,31,0,0,0,211.9,325c1,0,1.91-.05,2.88-.13a26.28,26.28,0,0,0,6.54,13.77,27.49,27.49,0,0,0,42.48-2.44,27.49,27.49,0,0,0,42.48,2.44,26.2,26.2,0,0,0,6.54-13.77c1,.08,1.92.13,2.88.13h0A31,31,0,0,0,344,306.22a28.87,28.87,0,0,0-2-27.46,33.65,33.65,0,0,0,14.51-27.71Zm-97.65,70.08c0,9.2-7.78,16.68-17.33,16.68a17.62,17.62,0,0,1-13-5.7,16.17,16.17,0,0,1-4.22-9.47c8.8-3.5,11.08-9.47,12.78-14,1.44-3.78,2.16-5.67,6.24-6.76a4.89,4.89,0,1,0-2.52-9.44c-8.92,2.39-11.19,8.37-12.84,12.73s-2.78,7.3-9.78,9.18h0a23.32,23.32,0,0,1-6.28.88,21.21,21.21,0,0,1-19.36-12.94,19.5,19.5,0,0,1,3.81-21.64,4.89,4.89,0,0,0-1.46-7.75,24.08,24.08,0,0,1,1.91-44.6,4.89,4.89,0,0,0,2.89-6.11,20,20,0,0,1,2.69-17.94,21.37,21.37,0,0,1,17.15-9c8.31,0,10.14,3.34,12.67,7.92,2.31,4.17,5.47,9.89,14,9.89a4.88,4.88,0,1,0,0-9.76c-2.51,0-3.17-.8-5.41-4.86-2.48-4.49-6.07-11-16.28-12.58a16.35,16.35,0,0,1,4.12-8.41,17.61,17.61,0,0,1,13-5.65c9.55,0,17.33,7.49,17.33,16.68v66.05c-11.47-1.12-14.33-6.36-17.84-12.8s-7.71-14.16-20.57-15.52a4.88,4.88,0,1,0-1,9.71c7.75.82,9.85,4.67,13,10.48a60.15,60.15,0,0,0,3.93,6.5,41.72,41.72,0,0,1-10.86,7.51,4.89,4.89,0,0,0,2.17,9.26,5,5,0,0,0,2.17-.51,50.7,50.7,0,0,0,13.55-9.49c3.69,2.36,8.62,4.09,15.46,4.65ZM332.71,273a4.89,4.89,0,0,0-1.46,7.74,19.52,19.52,0,0,1,3.82,21.64,21.22,21.22,0,0,1-19.37,12.94h0a23.67,23.67,0,0,1-6.26-.87h0c-7-1.88-8.1-4.78-9.77-9.18s-3.93-10.34-12.85-12.73a4.89,4.89,0,0,0-2.52,9.44c4.08,1.09,4.8,3,6.24,6.76,1.7,4.49,4,10.46,12.78,14a16.22,16.22,0,0,1-4.22,9.48,17.63,17.63,0,0,1-13,5.69c-9.55,0-17.33-7.48-17.33-16.68v-35c0-8.77,4.64-13.14,9-14.3,5.38-1.44,11,1.36,14.34,7.13a4.88,4.88,0,1,0,8.46-4.88c-5.53-9.57-15.7-14.26-25.32-11.68a20.42,20.42,0,0,0-6.44,3V233.94c10.27.86,13.35,4.62,17.11,9.23,3.34,4.07,7.11,8.68,15.24,11.27a4.76,4.76,0,0,0,1.48.23,4.89,4.89,0,0,0,1.48-9.54c-5.37-1.7-7.69-4.55-10.64-8.14-4.52-5.54-9.61-11.75-24.67-12.84V188.47c0-9.19,7.78-16.68,17.33-16.68a17.61,17.61,0,0,1,13,5.65,16.35,16.35,0,0,1,4.12,8.41c-10.21,1.6-13.8,8.09-16.28,12.59-2.24,4.05-2.9,4.85-5.42,4.85a4.88,4.88,0,1,0,0,9.76c8.5,0,11.66-5.72,14-9.89,2.53-4.58,4.37-7.9,12.67-7.92a21.32,21.32,0,0,1,17.15,9.06,19.92,19.92,0,0,1,2.69,17.93,4.89,4.89,0,0,0,2.89,6.11A24.09,24.09,0,0,1,332.71,273Zm0,0"/><path class="cls-1" d="M316.39,246.68h-.06a4.89,4.89,0,0,0,0,9.77h.06a4.89,4.89,0,0,0,0-9.77Zm0,0"/><path class="cls-1" d="M219.53,268.41a4.9,4.9,0,0,0-5.75-3.83l-.21.05a4.88,4.88,0,0,0,1.09,9.64,4.81,4.81,0,0,0,1.07-.12,4.89,4.89,0,0,0,3.8-5.74Zm0,0"/><path class="cls-1" d="M263.8,129.8a4.88,4.88,0,0,0-4.88,4.88v9.77a4.88,4.88,0,0,0,9.76,0v-9.77a4.88,4.88,0,0,0-4.88-4.88Zm0,0"/><path class="cls-1" d="M212.85,156.79,208,148.34a4.88,4.88,0,0,0-8.46,4.88l4.89,8.46a4.88,4.88,0,0,0,4.23,2.44,4.82,4.82,0,0,0,2.44-.66,4.88,4.88,0,0,0,1.78-6.67Zm0,0"/><path class="cls-1" d="M170.68,195.4l-8.46-4.89a4.88,4.88,0,0,0-4.88,8.46l8.45,4.88a4.82,4.82,0,0,0,2.44.66,4.88,4.88,0,0,0,2.45-9.11Zm0,0"/><path class="cls-1" d="M153.45,249.92h-9.77a4.88,4.88,0,1,0,0,9.76h9.77a4.88,4.88,0,1,0,0-9.76Zm0,0"/><path class="cls-1" d="M172.46,307.54a4.88,4.88,0,0,0-6.67-1.79l-8.45,4.88a4.88,4.88,0,0,0,4.88,8.46l8.46-4.88a4.89,4.89,0,0,0,1.78-6.67Zm0,0"/><path class="cls-1" d="M211.07,346.14a4.88,4.88,0,0,0-6.67,1.79l-4.89,8.45a4.88,4.88,0,0,0,1.79,6.67,4.82,4.82,0,0,0,2.44.66,4.89,4.89,0,0,0,4.23-2.44l4.88-8.46a4.89,4.89,0,0,0-1.78-6.67Zm0,0"/><path class="cls-1" d="M263.8,360.27a4.88,4.88,0,0,0-4.88,4.88v9.77a4.88,4.88,0,0,0,9.76,0v-9.77a4.88,4.88,0,0,0-4.88-4.88Zm0,0"/><path class="cls-1" d="M328.09,356.38l-4.89-8.45a4.88,4.88,0,1,0-8.45,4.88l4.88,8.46a4.91,4.91,0,0,0,4.24,2.44,4.81,4.81,0,0,0,2.43-.66,4.88,4.88,0,0,0,1.79-6.67Zm0,0"/><path class="cls-1" d="M370.27,310.63l-8.46-4.88a4.88,4.88,0,1,0-4.88,8.46l8.45,4.88a4.89,4.89,0,0,0,4.89-8.46Zm0,0"/><path class="cls-1" d="M383.92,249.92h-9.77a4.88,4.88,0,1,0,0,9.76h9.77a4.88,4.88,0,0,0,0-9.76Zm0,0"/><path class="cls-1" d="M372.05,192.3a4.89,4.89,0,0,0-6.67-1.79l-8.45,4.89a4.88,4.88,0,0,0,2.44,9.11,4.82,4.82,0,0,0,2.44-.66l8.46-4.88a4.88,4.88,0,0,0,1.78-6.67Zm0,0"/><path class="cls-1" d="M326.3,146.55a4.88,4.88,0,0,0-6.67,1.79l-4.88,8.45a4.88,4.88,0,0,0,1.79,6.67,4.75,4.75,0,0,0,2.43.66,4.88,4.88,0,0,0,4.23-2.44l4.89-8.46a4.88,4.88,0,0,0-1.79-6.67Zm0,0"/></svg>