<svg id="Layer_1" data-name="Layer 1" xmlns="http://www.w3.org/2000/svg" viewBox="0 0 500 500"><defs><style>.cls-1{fill:#fff;}</style></defs><title>icon_download_wit</title><path class="cls-1" d="M243.32,360.13c2.62,2.65,5,4.17,6.43,4.17s3.55-1.38,5.94-3.8c12.12-12.25,24.49-24.64,36.46-36.62,26.65-26.69,54.22-54.3,80.71-82,1.14-2.26,1.09-9-.11-11.09-7.59-10.59-10.43-11.61-11.12-11.67-1.16-.09-4.46,1.2-14.08,10.82-15,15-30.19,30-46.23,45.75q-10.81,10.64-22.24,21.91L263.59,312.9V265.3q0-23.43,0-46.84c-.06-41-.12-83.35.23-125,.09-11.25-1.59-13.12-12-13.38-7.23-.18-11.86.69-13.77,2.59s-2.79,6.25-2.69,12.76c.7,46.32.57,93.12.45,138.38q-.08,26.25-.09,52.23v20.74l-15.26-14c-7.39-6.8-14.88-13.62-22.12-20.21-17.39-15.83-35.38-32.19-52.45-48.82-2.74-2.66-5.18-4.18-6.73-4.18h0c-1.84,0-4.83,2.24-8.91,6.54-.67.7-1.35,1.41-2,2.1-2.71,2.8-5.78,6-6.37,8-.45,1.53,2.21,4.39,3.38,5.54C167.48,283.61,208.64,325.09,243.32,360.13Z"/><path class="cls-1" d="M403.47,394c-2.67-2-8.81-2.25-13.2-2.22-95,.35-189.66.34-281.3,0h-.34c-6.6,0-10.77.75-12.72,2.28s-3,5.46-3.14,11.63c-.09,6,.78,10,2.5,11.74,2.46,2.47,9.68,2.65,14.9,2.56,33.35-.51,67.23-.41,100-.32q39.65.12,79.27,0c13,0,26.24-.08,39.52-.08,20.1,0,40.36.09,60.44.41,5.12.08,12.2-.09,14.7-2.57,1.74-1.74,2.62-5.85,2.53-11.9S405.48,395.48,403.47,394Z"/></svg>