<svg id="Layer_1" data-name="Layer 1" xmlns="http://www.w3.org/2000/svg" viewBox="0 0 500 500"><defs><style>.cls-1{fill:#686868;}</style></defs><title>icon_fantasy</title><path class="cls-1" d="M318.16,154.42A4.88,4.88,0,1,0,323,159.3a4.89,4.89,0,0,0-4.88-4.88Zm0,0"/><path class="cls-1" d="M220.5,264.77a4.88,4.88,0,1,0,4.89,4.88,4.89,4.89,0,0,0-4.89-4.88Zm0,0"/><path class="cls-1" d="M191.21,125.12a4.89,4.89,0,1,0,4.88,4.88,4.89,4.89,0,0,0-4.88-4.88Zm0,0"/><path class="cls-1" d="M171.68,154.42a4.88,4.88,0,1,0,4.88,4.88,4.89,4.89,0,0,0-4.88-4.88Zm0,0"/><path class="cls-1" d="M337.69,245.24h-44.1l8.16-32.78a119.74,119.74,0,0,0-8.52-84.64,4.88,4.88,0,0,0-8.27-.75,136.68,136.68,0,0,0-27,91l1.64,27.16H244.92v-63a23.44,23.44,0,0,0-10.45-19.53,30.25,30.25,0,0,0-27.67-3.21,62.56,62.56,0,0,0-40,58.36,4.89,4.89,0,0,0,4.89,4.89,82.87,82.87,0,0,0,36-8.27l5.71,30.73H171.68a14.65,14.65,0,1,0,0,29.29h16.08a135.56,135.56,0,0,1,6.69,26.58,127.25,127.25,0,0,1-4.15,55.15,14.65,14.65,0,0,0,14,18.86H305a14.64,14.64,0,0,0,14-18.86,128.48,128.48,0,0,1-5.5-37,127,127,0,0,1,1.31-18.14,133.84,133.84,0,0,1,6.73-26.58h16.08a14.65,14.65,0,1,0,0-29.29ZM288,139.82A109.88,109.88,0,0,1,292.31,210s0,.06,0,.09l-8.76,35.19H269.35l-1.68-27.78A127,127,0,0,1,288,139.82Zm-111.14,73a53.2,53.2,0,0,1,33.51-44.2,20.51,20.51,0,0,1,18.73,2.24,13.67,13.67,0,0,1,6.08,10.58l-15.35,13.46a73,73,0,0,1-43,17.92Zm58.34-18.41v50.82H223.34l-6.65-35.79a81.26,81.26,0,0,0,9.53-7.2ZM305,365.35H204.33a4.88,4.88,0,0,1-4.68-6.28,137.27,137.27,0,0,0,5.15-53.82h99.73a137.08,137.08,0,0,0-.72,14,138.63,138.63,0,0,0,5.9,39.8,4.88,4.88,0,0,1-4.68,6.29Zm32.66-100.58H240a4.86,4.86,0,1,0,0,9.72h71.24a143.17,143.17,0,0,0-5.39,21H203.45a142.64,142.64,0,0,0-5.36-21H201a4.88,4.88,0,1,0,0-9.76H171.68a4.89,4.89,0,1,1,0-9.77h166a4.89,4.89,0,0,1,0,9.77Zm0,0"/><path class="cls-1" d="M347.46,125.12a14.65,14.65,0,1,0,14.64,14.65,14.66,14.66,0,0,0-14.64-14.65Zm0,19.53a4.88,4.88,0,1,1,4.88-4.88,4.89,4.89,0,0,1-4.88,4.88Zm0,0"/><path class="cls-1" d="M347.46,193.48h-4.89V188.6a4.88,4.88,0,1,0-9.76,0v4.88h-4.88a4.88,4.88,0,1,0,0,9.76h4.88v4.89a4.88,4.88,0,0,0,9.76,0v-4.89h4.89a4.88,4.88,0,0,0,0-9.76Zm0,0"/><path class="cls-1" d="M161.91,134.89H157V130a4.89,4.89,0,0,0-9.77,0v4.89h-4.88a4.88,4.88,0,0,0,0,9.76h4.88v4.88a4.89,4.89,0,1,0,9.77,0v-4.88h4.88a4.88,4.88,0,0,0,0-9.76Zm0,0"/></svg>